<?xml version="1.0" encoding="UTF-8"?>
<svg width="508px" height="84px" viewBox="0 0 508 84" version="1.1" xmlns="http://www.w3.org/2000/svg" xmlns:xlink="http://www.w3.org/1999/xlink">
    <!-- Generator: Sketch 41.1 (35376) - http://www.bohemiancoding.com/sketch -->
    <title>goat</title>
    <desc>Created with Sketch.</desc>
    <defs></defs>
    <g id="Page-1" stroke="none" stroke-width="1" fill="none" fill-rule="evenodd">
        <g id="goat">
            <g id="Page-1" fill="#FFFFFF">
                <g id="noun_633513_cc">
                    <g id="Group">
                        <path d="M33.8,78.1 L33.9,78.4 L38.7,83.4 L61.3,83.4 L66.1,78.4 L71.6,49.9 L100,27.6 L68.9,25.3 L68.9,27.5 L67.2,27.4 L57,0.6 L55.5,26.6 L50,26.2 L44.5,26.6 L43,0.6 L32.8,27.4 L31.1,27.5 L31.1,25.3 L0,27.6 L28.3,49.9 L33.8,78.1 Z M40.3,18.4 L40.8,26.8 L37,27.1 L40.3,18.4 Z M63.1,27.1 L59.3,26.8 L59.8,18.4 L63.1,27.1 Z M73.1,43.9 L76.2,31 L76.2,31 L76.5,29.7 L89.9,30.7 L73.1,43.9 Z M49.1,30 L50.9,30 L72.3,31.5 L62.7,76.5 L59.7,79.6 L40.3,79.6 L37.3,76.5 L27.7,31.5 L49.1,30 Z M23.4,29.7 L26.9,44 L10,30.6 L23.4,29.7 Z" id="Shape"></path>
                        <circle id="Oval" cx="41.4" cy="42" r="3.8"></circle>
                        <circle id="Oval" cx="58.6" cy="42" r="3.8"></circle>
                        <circle id="Oval" cx="45.9" cy="73.7" r="2.3"></circle>
                        <circle id="Oval" cx="54.1" cy="73.7" r="2.3"></circle>
                    </g>
                </g>
            </g>
            <text id="BLAKEPARKINSON" font-family="LucidaGrande, Lucida Grande" font-size="48" font-weight="normal">
                <tspan x="100" y="74" fill="#FFFFFF">BLAKE</tspan>
                <tspan x="243.671875" y="74" fill="#8C8C8C">PARKINSON</tspan>
            </text>
        </g>
    </g>
</svg>